<?xml version="1.0" encoding="utf-8"?>
<!-- Generator: Adobe Illustrator 17.1.0, SVG Export Plug-In . SVG Version: 6.00 Build 0)  -->
<!DOCTYPE svg PUBLIC "-//W3C//DTD SVG 1.1//EN" "http://www.w3.org/Graphics/SVG/1.1/DTD/svg11.dtd">
<svg version="1.1" id="Layer_1" xmlns="http://www.w3.org/2000/svg" xmlns:xlink="http://www.w3.org/1999/xlink" x="0px" y="0px"
	 width="36px" height="36px" viewBox="0 0 36 36" enable-background="new 0 0 36 36" xml:space="preserve">
<path d="M8.9,33.2h18.2V13.8H8.9V33.2z M21.4,17.7c0-0.6,0.5-1.1,1.1-1.1c0.6,0,1.1,0.5,1.1,1.1V29c0,0.6-0.5,1.1-1.1,1.1
	c-0.6,0-1.1-0.5-1.1-1.1V17.7z M16.9,17.7c0-0.6,0.5-1.1,1.1-1.1c0.6,0,1.1,0.5,1.1,1.1V29c0,0.6-0.5,1.1-1.1,1.1
	c-0.6,0-1.1-0.5-1.1-1.1V17.7z M12.4,17.7c0-0.6,0.5-1.1,1.1-1.1c0.6,0,1.1,0.5,1.1,1.1V29c0,0.6-0.5,1.1-1.1,1.1
	c-0.6,0-1.1-0.5-1.1-1.1V17.7z M28,6.5h-4V5.9c0-1.7-1.4-3.1-3.1-3.1h-5.9c-1.7,0-3.1,1.4-3.1,3.1v0.6H8C7.2,6.5,6.5,7.2,6.5,8v3.9
	h23V8C29.5,7.2,28.8,6.5,28,6.5z M21.9,6.5h-7.9l0-0.6c0-0.6,0.4-1,1-1h5.9c0.5,0,1,0.4,1,1L21.9,6.5L21.9,6.5z"/>
</svg>
