<?xml version="1.0" encoding="utf-8"?>
<!-- Generator: Adobe Illustrator 17.1.0, SVG Export Plug-In . SVG Version: 6.00 Build 0)  -->
<!DOCTYPE svg PUBLIC "-//W3C//DTD SVG 1.1//EN" "http://www.w3.org/Graphics/SVG/1.1/DTD/svg11.dtd">
<svg version="1.1" id="Capa_1" xmlns="http://www.w3.org/2000/svg" xmlns:xlink="http://www.w3.org/1999/xlink" x="0px" y="0px"
	 width="20px" height="26.5px" viewBox="39.5 36.2 20 26.5" enable-background="new 39.5 36.2 20 26.5" xml:space="preserve">
<path d="M41.6,62.8h15.9V45.9H41.6V62.8z M52.5,49.3c0-0.5,0.4-0.9,0.9-0.9c0.5,0,0.9,0.4,0.9,0.9V59c0,0.5-0.4,0.9-0.9,0.9
	c-0.5,0-0.9-0.4-0.9-0.9V49.3z M48.6,49.3c0-0.5,0.4-0.9,0.9-0.9c0.5,0,0.9,0.4,0.9,0.9V59c0,0.5-0.4,0.9-0.9,0.9
	c-0.5,0-0.9-0.4-0.9-0.9V49.3z M44.6,49.3c0-0.5,0.4-0.9,0.9-0.9c0.5,0,0.9,0.4,0.9,0.9V59c0,0.5-0.4,0.9-0.9,0.9
	c-0.5,0-0.9-0.4-0.9-0.9V49.3z M58.2,39.5h-3.4V39c0-1.5-1.2-2.7-2.7-2.7H47c-1.5,0-2.7,1.2-2.7,2.7v0.6h-3.4
	c-0.7,0-1.3,0.6-1.3,1.3v3.4h20v-3.4C59.5,40.1,58.9,39.5,58.2,39.5z M52.9,39.5h-6.8l0-0.6c0-0.5,0.4-0.9,0.9-0.9H52
	c0.5,0,0.9,0.4,0.9,0.9V39.5L52.9,39.5z"/>
</svg>
